<svg width="21" height="21" viewBox="0 0 21 21" fill="none" xmlns="http://www.w3.org/2000/svg">
<path d="M3 11.6778C3 13.0549 3.34428 14.3295 4.03283 15.5014C4.72139 16.6733 5.65162 17.599 6.82353 18.2784C7.99544 18.9578 9.26539 19.2975 10.6334 19.2975C12.0287 19.2975 13.3101 18.9601 14.4774 18.2852C15.6448 17.6104 16.5659 16.6892 17.2408 15.5219C17.9156 14.3545 18.2531 13.0732 18.2531 11.6778C18.2531 11.3313 18.1368 11.0349 17.9042 10.7886C17.6717 10.5424 17.3867 10.4193 17.0492 10.4193C16.7118 10.4193 16.42 10.5424 16.1737 10.7886C15.9275 11.0349 15.8044 11.3313 15.8044 11.6778C15.8044 13.1097 15.3005 14.3295 14.2928 15.3372C13.285 16.345 12.0652 16.8488 10.6334 16.8488C9.21979 16.8488 8.01596 16.345 7.02189 15.3372C6.02782 14.3295 5.53078 13.1097 5.53078 11.6778C5.53078 10.4375 5.9161 9.3135 6.68673 8.30575C7.45736 7.29799 8.3534 6.7622 9.37483 6.69836L8.81395 7.23187C8.57684 7.48723 8.45828 7.76995 8.45828 8.08003C8.45828 8.40835 8.57684 8.70018 8.81395 8.95554C9.34291 9.46626 9.93114 9.46626 10.5787 8.95554L13.2599 6.30164C13.497 6.11924 13.6156 5.81829 13.6156 5.39877C13.6156 5.02485 13.497 4.74669 13.2599 4.5643L10.5787 1.85568C10.3233 1.61856 10.0451 1.5 9.74419 1.5C9.37939 1.5 9.07387 1.62084 8.82763 1.86252C8.5814 2.1042 8.45828 2.39831 8.45828 2.74487C8.45828 3.10055 8.57684 3.39694 8.81395 3.63406L9.37483 4.1539C7.55084 4.4731 6.03238 5.34633 4.81943 6.7736C3.60648 8.20087 3 9.83561 3 11.6778Z" fill="currentColor"/>
</svg>
